<mxfile host="Electron" modified="2023-12-09T06:29:42.992Z" agent="Mozilla/5.0 (Windows NT 10.0; Win64; x64) AppleWebKit/537.36 (KHTML, like Gecko) draw.io/22.1.2 Chrome/114.0.5735.289 Electron/25.9.4 Safari/537.36" etag="RXoZrrHBMJpJIdulhTs3" version="22.1.2" type="device">
  <diagram name="第 1 页" id="wgcMSJyk0tg2hGLfyOKL">
    <mxGraphModel dx="521" dy="303" grid="1" gridSize="10" guides="1" tooltips="1" connect="1" arrows="1" fold="1" page="1" pageScale="1" pageWidth="1169" pageHeight="827" math="1" shadow="0">
      <root>
        <mxCell id="0" />
        <mxCell id="1" parent="0" />
        <mxCell id="qe55BHSGIHkiEadWLdB0-59" style="rounded=0;orthogonalLoop=1;jettySize=auto;html=1;exitX=1;exitY=0.5;exitDx=0;exitDy=0;entryX=0;entryY=0.5;entryDx=0;entryDy=0;endArrow=none;endFill=0;" edge="1" parent="1" source="qe55BHSGIHkiEadWLdB0-1" target="qe55BHSGIHkiEadWLdB0-7">
          <mxGeometry relative="1" as="geometry" />
        </mxCell>
        <mxCell id="qe55BHSGIHkiEadWLdB0-60" style="rounded=0;orthogonalLoop=1;jettySize=auto;html=1;exitX=1;exitY=0.5;exitDx=0;exitDy=0;entryX=0;entryY=0.5;entryDx=0;entryDy=0;endArrow=none;endFill=0;" edge="1" parent="1" source="qe55BHSGIHkiEadWLdB0-1" target="qe55BHSGIHkiEadWLdB0-8">
          <mxGeometry relative="1" as="geometry" />
        </mxCell>
        <mxCell id="qe55BHSGIHkiEadWLdB0-61" style="rounded=0;orthogonalLoop=1;jettySize=auto;html=1;exitX=1;exitY=0.5;exitDx=0;exitDy=0;entryX=0;entryY=0.5;entryDx=0;entryDy=0;endArrow=none;endFill=0;" edge="1" parent="1" source="qe55BHSGIHkiEadWLdB0-1" target="qe55BHSGIHkiEadWLdB0-9">
          <mxGeometry relative="1" as="geometry" />
        </mxCell>
        <mxCell id="qe55BHSGIHkiEadWLdB0-62" style="rounded=0;orthogonalLoop=1;jettySize=auto;html=1;exitX=1;exitY=0.5;exitDx=0;exitDy=0;entryX=0;entryY=0.5;entryDx=0;entryDy=0;endArrow=none;endFill=0;" edge="1" parent="1" source="qe55BHSGIHkiEadWLdB0-1" target="qe55BHSGIHkiEadWLdB0-10">
          <mxGeometry relative="1" as="geometry" />
        </mxCell>
        <mxCell id="qe55BHSGIHkiEadWLdB0-63" style="rounded=0;orthogonalLoop=1;jettySize=auto;html=1;exitX=1;exitY=0.5;exitDx=0;exitDy=0;entryX=0;entryY=0.5;entryDx=0;entryDy=0;endArrow=none;endFill=0;" edge="1" parent="1" source="qe55BHSGIHkiEadWLdB0-1" target="qe55BHSGIHkiEadWLdB0-11">
          <mxGeometry relative="1" as="geometry" />
        </mxCell>
        <mxCell id="qe55BHSGIHkiEadWLdB0-1" value="" style="ellipse;whiteSpace=wrap;html=1;aspect=fixed;fillColor=#d5e8d4;strokeColor=#82b366;" vertex="1" parent="1">
          <mxGeometry x="240" y="180" width="20" height="20" as="geometry" />
        </mxCell>
        <mxCell id="qe55BHSGIHkiEadWLdB0-64" style="rounded=0;orthogonalLoop=1;jettySize=auto;html=1;exitX=1;exitY=0.5;exitDx=0;exitDy=0;entryX=0;entryY=0.5;entryDx=0;entryDy=0;endArrow=none;endFill=0;" edge="1" parent="1" source="qe55BHSGIHkiEadWLdB0-2" target="qe55BHSGIHkiEadWLdB0-7">
          <mxGeometry relative="1" as="geometry" />
        </mxCell>
        <mxCell id="qe55BHSGIHkiEadWLdB0-65" style="rounded=0;orthogonalLoop=1;jettySize=auto;html=1;exitX=1;exitY=0.5;exitDx=0;exitDy=0;entryX=0;entryY=0.5;entryDx=0;entryDy=0;endArrow=none;endFill=0;" edge="1" parent="1" source="qe55BHSGIHkiEadWLdB0-2" target="qe55BHSGIHkiEadWLdB0-8">
          <mxGeometry relative="1" as="geometry" />
        </mxCell>
        <mxCell id="qe55BHSGIHkiEadWLdB0-66" style="rounded=0;orthogonalLoop=1;jettySize=auto;html=1;exitX=1;exitY=0.5;exitDx=0;exitDy=0;entryX=0;entryY=0.5;entryDx=0;entryDy=0;endArrow=none;endFill=0;" edge="1" parent="1" source="qe55BHSGIHkiEadWLdB0-2" target="qe55BHSGIHkiEadWLdB0-9">
          <mxGeometry relative="1" as="geometry" />
        </mxCell>
        <mxCell id="qe55BHSGIHkiEadWLdB0-67" style="rounded=0;orthogonalLoop=1;jettySize=auto;html=1;exitX=1;exitY=0.5;exitDx=0;exitDy=0;entryX=0;entryY=0.5;entryDx=0;entryDy=0;endArrow=none;endFill=0;" edge="1" parent="1" source="qe55BHSGIHkiEadWLdB0-2" target="qe55BHSGIHkiEadWLdB0-10">
          <mxGeometry relative="1" as="geometry" />
        </mxCell>
        <mxCell id="qe55BHSGIHkiEadWLdB0-2" value="" style="ellipse;whiteSpace=wrap;html=1;aspect=fixed;fillColor=#d5e8d4;strokeColor=#82b366;" vertex="1" parent="1">
          <mxGeometry x="240" y="220" width="20" height="20" as="geometry" />
        </mxCell>
        <mxCell id="qe55BHSGIHkiEadWLdB0-68" style="rounded=0;orthogonalLoop=1;jettySize=auto;html=1;exitX=1;exitY=0.5;exitDx=0;exitDy=0;entryX=0;entryY=0.5;entryDx=0;entryDy=0;endArrow=none;endFill=0;" edge="1" parent="1" source="qe55BHSGIHkiEadWLdB0-3" target="qe55BHSGIHkiEadWLdB0-10">
          <mxGeometry relative="1" as="geometry" />
        </mxCell>
        <mxCell id="qe55BHSGIHkiEadWLdB0-69" style="rounded=0;orthogonalLoop=1;jettySize=auto;html=1;exitX=1;exitY=0.5;exitDx=0;exitDy=0;entryX=0;entryY=0.5;entryDx=0;entryDy=0;endArrow=none;endFill=0;" edge="1" parent="1" source="qe55BHSGIHkiEadWLdB0-3" target="qe55BHSGIHkiEadWLdB0-11">
          <mxGeometry relative="1" as="geometry" />
        </mxCell>
        <mxCell id="qe55BHSGIHkiEadWLdB0-3" value="" style="ellipse;whiteSpace=wrap;html=1;aspect=fixed;fillColor=#d5e8d4;strokeColor=#82b366;" vertex="1" parent="1">
          <mxGeometry x="240" y="260" width="20" height="20" as="geometry" />
        </mxCell>
        <mxCell id="qe55BHSGIHkiEadWLdB0-70" style="rounded=0;orthogonalLoop=1;jettySize=auto;html=1;exitX=1;exitY=0.5;exitDx=0;exitDy=0;entryX=0;entryY=0.5;entryDx=0;entryDy=0;endArrow=none;endFill=0;" edge="1" parent="1" source="qe55BHSGIHkiEadWLdB0-4" target="qe55BHSGIHkiEadWLdB0-7">
          <mxGeometry relative="1" as="geometry" />
        </mxCell>
        <mxCell id="qe55BHSGIHkiEadWLdB0-71" style="rounded=0;orthogonalLoop=1;jettySize=auto;html=1;exitX=1;exitY=0.5;exitDx=0;exitDy=0;entryX=0;entryY=0.5;entryDx=0;entryDy=0;endArrow=none;endFill=0;" edge="1" parent="1" source="qe55BHSGIHkiEadWLdB0-4" target="qe55BHSGIHkiEadWLdB0-8">
          <mxGeometry relative="1" as="geometry" />
        </mxCell>
        <mxCell id="qe55BHSGIHkiEadWLdB0-72" style="rounded=0;orthogonalLoop=1;jettySize=auto;html=1;exitX=1;exitY=0.5;exitDx=0;exitDy=0;entryX=0;entryY=0.5;entryDx=0;entryDy=0;endArrow=none;endFill=0;" edge="1" parent="1" source="qe55BHSGIHkiEadWLdB0-4" target="qe55BHSGIHkiEadWLdB0-9">
          <mxGeometry relative="1" as="geometry" />
        </mxCell>
        <mxCell id="qe55BHSGIHkiEadWLdB0-73" style="rounded=0;orthogonalLoop=1;jettySize=auto;html=1;exitX=1;exitY=0.5;exitDx=0;exitDy=0;entryX=0;entryY=0.5;entryDx=0;entryDy=0;endArrow=none;endFill=0;" edge="1" parent="1" source="qe55BHSGIHkiEadWLdB0-4" target="qe55BHSGIHkiEadWLdB0-10">
          <mxGeometry relative="1" as="geometry" />
        </mxCell>
        <mxCell id="qe55BHSGIHkiEadWLdB0-74" style="rounded=0;orthogonalLoop=1;jettySize=auto;html=1;exitX=1;exitY=0.5;exitDx=0;exitDy=0;entryX=0;entryY=0.5;entryDx=0;entryDy=0;endArrow=none;endFill=0;" edge="1" parent="1" source="qe55BHSGIHkiEadWLdB0-4" target="qe55BHSGIHkiEadWLdB0-11">
          <mxGeometry relative="1" as="geometry" />
        </mxCell>
        <mxCell id="qe55BHSGIHkiEadWLdB0-4" value="" style="ellipse;whiteSpace=wrap;html=1;aspect=fixed;fillColor=#d5e8d4;strokeColor=#82b366;" vertex="1" parent="1">
          <mxGeometry x="240" y="300" width="20" height="20" as="geometry" />
        </mxCell>
        <mxCell id="qe55BHSGIHkiEadWLdB0-32" style="edgeStyle=orthogonalEdgeStyle;rounded=0;orthogonalLoop=1;jettySize=auto;html=1;exitX=1;exitY=0.5;exitDx=0;exitDy=0;entryX=0;entryY=0.5;entryDx=0;entryDy=0;strokeColor=default;endArrow=none;endFill=0;" edge="1" parent="1" source="qe55BHSGIHkiEadWLdB0-7" target="qe55BHSGIHkiEadWLdB0-15">
          <mxGeometry relative="1" as="geometry" />
        </mxCell>
        <mxCell id="qe55BHSGIHkiEadWLdB0-33" style="rounded=0;orthogonalLoop=1;jettySize=auto;html=1;exitX=1;exitY=0.5;exitDx=0;exitDy=0;entryX=0;entryY=0.5;entryDx=0;entryDy=0;endArrow=none;endFill=0;" edge="1" parent="1" source="qe55BHSGIHkiEadWLdB0-7" target="qe55BHSGIHkiEadWLdB0-16">
          <mxGeometry relative="1" as="geometry" />
        </mxCell>
        <mxCell id="qe55BHSGIHkiEadWLdB0-34" style="rounded=0;orthogonalLoop=1;jettySize=auto;html=1;exitX=1;exitY=0.5;exitDx=0;exitDy=0;entryX=0;entryY=0.5;entryDx=0;entryDy=0;endArrow=none;endFill=0;" edge="1" parent="1" source="qe55BHSGIHkiEadWLdB0-7" target="qe55BHSGIHkiEadWLdB0-17">
          <mxGeometry relative="1" as="geometry" />
        </mxCell>
        <mxCell id="qe55BHSGIHkiEadWLdB0-35" style="rounded=0;orthogonalLoop=1;jettySize=auto;html=1;exitX=1;exitY=0.5;exitDx=0;exitDy=0;entryX=0;entryY=0.5;entryDx=0;entryDy=0;endArrow=none;endFill=0;" edge="1" parent="1" source="qe55BHSGIHkiEadWLdB0-7" target="qe55BHSGIHkiEadWLdB0-18">
          <mxGeometry relative="1" as="geometry" />
        </mxCell>
        <mxCell id="qe55BHSGIHkiEadWLdB0-36" style="rounded=0;orthogonalLoop=1;jettySize=auto;html=1;exitX=1;exitY=0.5;exitDx=0;exitDy=0;entryX=0;entryY=0.5;entryDx=0;entryDy=0;endArrow=none;endFill=0;" edge="1" parent="1" source="qe55BHSGIHkiEadWLdB0-7" target="qe55BHSGIHkiEadWLdB0-19">
          <mxGeometry relative="1" as="geometry" />
        </mxCell>
        <mxCell id="qe55BHSGIHkiEadWLdB0-7" value="" style="ellipse;whiteSpace=wrap;html=1;aspect=fixed;fillColor=#f5f5f5;fontColor=#333333;strokeColor=#666666;" vertex="1" parent="1">
          <mxGeometry x="320" y="160" width="20" height="20" as="geometry" />
        </mxCell>
        <mxCell id="qe55BHSGIHkiEadWLdB0-37" style="rounded=0;orthogonalLoop=1;jettySize=auto;html=1;exitX=1;exitY=0.5;exitDx=0;exitDy=0;entryX=0;entryY=0.5;entryDx=0;entryDy=0;endArrow=none;endFill=0;" edge="1" parent="1" source="qe55BHSGIHkiEadWLdB0-8" target="qe55BHSGIHkiEadWLdB0-15">
          <mxGeometry relative="1" as="geometry" />
        </mxCell>
        <mxCell id="qe55BHSGIHkiEadWLdB0-38" style="rounded=0;orthogonalLoop=1;jettySize=auto;html=1;exitX=1;exitY=0.5;exitDx=0;exitDy=0;entryX=0;entryY=0.5;entryDx=0;entryDy=0;endArrow=none;endFill=0;" edge="1" parent="1" source="qe55BHSGIHkiEadWLdB0-8" target="qe55BHSGIHkiEadWLdB0-16">
          <mxGeometry relative="1" as="geometry" />
        </mxCell>
        <mxCell id="qe55BHSGIHkiEadWLdB0-39" style="rounded=0;orthogonalLoop=1;jettySize=auto;html=1;exitX=1;exitY=0.5;exitDx=0;exitDy=0;entryX=0;entryY=0.5;entryDx=0;entryDy=0;endArrow=none;endFill=0;" edge="1" parent="1" source="qe55BHSGIHkiEadWLdB0-8" target="qe55BHSGIHkiEadWLdB0-17">
          <mxGeometry relative="1" as="geometry" />
        </mxCell>
        <mxCell id="qe55BHSGIHkiEadWLdB0-40" style="rounded=0;orthogonalLoop=1;jettySize=auto;html=1;exitX=1;exitY=0.5;exitDx=0;exitDy=0;entryX=0;entryY=0.5;entryDx=0;entryDy=0;endArrow=none;endFill=0;" edge="1" parent="1" source="qe55BHSGIHkiEadWLdB0-8" target="qe55BHSGIHkiEadWLdB0-18">
          <mxGeometry relative="1" as="geometry" />
        </mxCell>
        <mxCell id="qe55BHSGIHkiEadWLdB0-41" style="rounded=0;orthogonalLoop=1;jettySize=auto;html=1;exitX=1;exitY=0.5;exitDx=0;exitDy=0;entryX=0;entryY=0.5;entryDx=0;entryDy=0;endArrow=none;endFill=0;" edge="1" parent="1" source="qe55BHSGIHkiEadWLdB0-8" target="qe55BHSGIHkiEadWLdB0-19">
          <mxGeometry relative="1" as="geometry" />
        </mxCell>
        <mxCell id="qe55BHSGIHkiEadWLdB0-8" value="" style="ellipse;whiteSpace=wrap;html=1;aspect=fixed;fillColor=#f5f5f5;fontColor=#333333;strokeColor=#666666;" vertex="1" parent="1">
          <mxGeometry x="320" y="200" width="20" height="20" as="geometry" />
        </mxCell>
        <mxCell id="qe55BHSGIHkiEadWLdB0-42" style="rounded=0;orthogonalLoop=1;jettySize=auto;html=1;exitX=1;exitY=0.5;exitDx=0;exitDy=0;entryX=0;entryY=0.5;entryDx=0;entryDy=0;endArrow=none;endFill=0;" edge="1" parent="1" source="qe55BHSGIHkiEadWLdB0-9" target="qe55BHSGIHkiEadWLdB0-15">
          <mxGeometry relative="1" as="geometry" />
        </mxCell>
        <mxCell id="qe55BHSGIHkiEadWLdB0-43" style="rounded=0;orthogonalLoop=1;jettySize=auto;html=1;exitX=1;exitY=0.5;exitDx=0;exitDy=0;entryX=0;entryY=0.5;entryDx=0;entryDy=0;endArrow=none;endFill=0;" edge="1" parent="1" source="qe55BHSGIHkiEadWLdB0-9" target="qe55BHSGIHkiEadWLdB0-16">
          <mxGeometry relative="1" as="geometry" />
        </mxCell>
        <mxCell id="qe55BHSGIHkiEadWLdB0-44" style="rounded=0;orthogonalLoop=1;jettySize=auto;html=1;exitX=1;exitY=0.5;exitDx=0;exitDy=0;entryX=0;entryY=0.5;entryDx=0;entryDy=0;endArrow=none;endFill=0;" edge="1" parent="1" source="qe55BHSGIHkiEadWLdB0-9" target="qe55BHSGIHkiEadWLdB0-17">
          <mxGeometry relative="1" as="geometry" />
        </mxCell>
        <mxCell id="qe55BHSGIHkiEadWLdB0-45" style="rounded=0;orthogonalLoop=1;jettySize=auto;html=1;exitX=1;exitY=0.5;exitDx=0;exitDy=0;entryX=0;entryY=0.5;entryDx=0;entryDy=0;endArrow=none;endFill=0;" edge="1" parent="1" source="qe55BHSGIHkiEadWLdB0-9" target="qe55BHSGIHkiEadWLdB0-18">
          <mxGeometry relative="1" as="geometry" />
        </mxCell>
        <mxCell id="qe55BHSGIHkiEadWLdB0-46" style="rounded=0;orthogonalLoop=1;jettySize=auto;html=1;exitX=1;exitY=0.5;exitDx=0;exitDy=0;entryX=0;entryY=0.5;entryDx=0;entryDy=0;endArrow=none;endFill=0;" edge="1" parent="1" source="qe55BHSGIHkiEadWLdB0-9" target="qe55BHSGIHkiEadWLdB0-19">
          <mxGeometry relative="1" as="geometry" />
        </mxCell>
        <mxCell id="qe55BHSGIHkiEadWLdB0-9" value="" style="ellipse;whiteSpace=wrap;html=1;aspect=fixed;fillColor=#f5f5f5;fontColor=#333333;strokeColor=#666666;" vertex="1" parent="1">
          <mxGeometry x="320" y="240" width="20" height="20" as="geometry" />
        </mxCell>
        <mxCell id="qe55BHSGIHkiEadWLdB0-47" style="rounded=0;orthogonalLoop=1;jettySize=auto;html=1;exitX=1;exitY=0.5;exitDx=0;exitDy=0;entryX=0;entryY=0.5;entryDx=0;entryDy=0;endArrow=none;endFill=0;" edge="1" parent="1" source="qe55BHSGIHkiEadWLdB0-10" target="qe55BHSGIHkiEadWLdB0-15">
          <mxGeometry relative="1" as="geometry" />
        </mxCell>
        <mxCell id="qe55BHSGIHkiEadWLdB0-48" style="rounded=0;orthogonalLoop=1;jettySize=auto;html=1;exitX=1;exitY=0.5;exitDx=0;exitDy=0;entryX=0;entryY=0.5;entryDx=0;entryDy=0;endArrow=none;endFill=0;" edge="1" parent="1" source="qe55BHSGIHkiEadWLdB0-10" target="qe55BHSGIHkiEadWLdB0-16">
          <mxGeometry relative="1" as="geometry" />
        </mxCell>
        <mxCell id="qe55BHSGIHkiEadWLdB0-49" style="rounded=0;orthogonalLoop=1;jettySize=auto;html=1;exitX=1;exitY=0.5;exitDx=0;exitDy=0;entryX=0;entryY=0.5;entryDx=0;entryDy=0;endArrow=none;endFill=0;" edge="1" parent="1" source="qe55BHSGIHkiEadWLdB0-10" target="qe55BHSGIHkiEadWLdB0-17">
          <mxGeometry relative="1" as="geometry" />
        </mxCell>
        <mxCell id="qe55BHSGIHkiEadWLdB0-50" style="rounded=0;orthogonalLoop=1;jettySize=auto;html=1;exitX=1;exitY=0.5;exitDx=0;exitDy=0;entryX=0;entryY=0.5;entryDx=0;entryDy=0;endArrow=none;endFill=0;" edge="1" parent="1" source="qe55BHSGIHkiEadWLdB0-10" target="qe55BHSGIHkiEadWLdB0-18">
          <mxGeometry relative="1" as="geometry" />
        </mxCell>
        <mxCell id="qe55BHSGIHkiEadWLdB0-51" style="rounded=0;orthogonalLoop=1;jettySize=auto;html=1;exitX=1;exitY=0.5;exitDx=0;exitDy=0;entryX=0;entryY=0.5;entryDx=0;entryDy=0;endArrow=none;endFill=0;" edge="1" parent="1" source="qe55BHSGIHkiEadWLdB0-10" target="qe55BHSGIHkiEadWLdB0-19">
          <mxGeometry relative="1" as="geometry" />
        </mxCell>
        <mxCell id="qe55BHSGIHkiEadWLdB0-10" value="" style="ellipse;whiteSpace=wrap;html=1;aspect=fixed;fillColor=#f5f5f5;fontColor=#333333;strokeColor=#666666;" vertex="1" parent="1">
          <mxGeometry x="320" y="280" width="20" height="20" as="geometry" />
        </mxCell>
        <mxCell id="qe55BHSGIHkiEadWLdB0-54" style="rounded=0;orthogonalLoop=1;jettySize=auto;html=1;exitX=1;exitY=0.5;exitDx=0;exitDy=0;entryX=0;entryY=0.5;entryDx=0;entryDy=0;endArrow=none;endFill=0;" edge="1" parent="1" source="qe55BHSGIHkiEadWLdB0-11" target="qe55BHSGIHkiEadWLdB0-15">
          <mxGeometry relative="1" as="geometry" />
        </mxCell>
        <mxCell id="qe55BHSGIHkiEadWLdB0-55" style="rounded=0;orthogonalLoop=1;jettySize=auto;html=1;exitX=1;exitY=0.5;exitDx=0;exitDy=0;entryX=0;entryY=0.5;entryDx=0;entryDy=0;endArrow=none;endFill=0;" edge="1" parent="1" source="qe55BHSGIHkiEadWLdB0-11" target="qe55BHSGIHkiEadWLdB0-16">
          <mxGeometry relative="1" as="geometry" />
        </mxCell>
        <mxCell id="qe55BHSGIHkiEadWLdB0-56" style="rounded=0;orthogonalLoop=1;jettySize=auto;html=1;exitX=1;exitY=0.5;exitDx=0;exitDy=0;entryX=0;entryY=0.5;entryDx=0;entryDy=0;endArrow=none;endFill=0;" edge="1" parent="1" source="qe55BHSGIHkiEadWLdB0-11" target="qe55BHSGIHkiEadWLdB0-17">
          <mxGeometry relative="1" as="geometry" />
        </mxCell>
        <mxCell id="qe55BHSGIHkiEadWLdB0-57" style="rounded=0;orthogonalLoop=1;jettySize=auto;html=1;exitX=1;exitY=0.5;exitDx=0;exitDy=0;entryX=0;entryY=0.5;entryDx=0;entryDy=0;endArrow=none;endFill=0;" edge="1" parent="1" source="qe55BHSGIHkiEadWLdB0-11" target="qe55BHSGIHkiEadWLdB0-18">
          <mxGeometry relative="1" as="geometry" />
        </mxCell>
        <mxCell id="qe55BHSGIHkiEadWLdB0-58" style="rounded=0;orthogonalLoop=1;jettySize=auto;html=1;exitX=1;exitY=0.5;exitDx=0;exitDy=0;entryX=0;entryY=0.5;entryDx=0;entryDy=0;endArrow=none;endFill=0;" edge="1" parent="1" source="qe55BHSGIHkiEadWLdB0-11" target="qe55BHSGIHkiEadWLdB0-19">
          <mxGeometry relative="1" as="geometry" />
        </mxCell>
        <mxCell id="qe55BHSGIHkiEadWLdB0-11" value="" style="ellipse;whiteSpace=wrap;html=1;aspect=fixed;fillColor=#f5f5f5;fontColor=#333333;strokeColor=#666666;" vertex="1" parent="1">
          <mxGeometry x="320" y="320" width="20" height="20" as="geometry" />
        </mxCell>
        <mxCell id="qe55BHSGIHkiEadWLdB0-82" style="rounded=0;orthogonalLoop=1;jettySize=auto;html=1;exitX=1;exitY=0.5;exitDx=0;exitDy=0;entryX=0;entryY=0.5;entryDx=0;entryDy=0;endArrow=none;endFill=0;" edge="1" parent="1" source="qe55BHSGIHkiEadWLdB0-15" target="qe55BHSGIHkiEadWLdB0-24">
          <mxGeometry relative="1" as="geometry" />
        </mxCell>
        <mxCell id="qe55BHSGIHkiEadWLdB0-83" style="rounded=0;orthogonalLoop=1;jettySize=auto;html=1;exitX=1;exitY=0.5;exitDx=0;exitDy=0;entryX=0;entryY=0.5;entryDx=0;entryDy=0;endArrow=none;endFill=0;" edge="1" parent="1" source="qe55BHSGIHkiEadWLdB0-15" target="qe55BHSGIHkiEadWLdB0-23">
          <mxGeometry relative="1" as="geometry" />
        </mxCell>
        <mxCell id="qe55BHSGIHkiEadWLdB0-84" style="rounded=0;orthogonalLoop=1;jettySize=auto;html=1;exitX=1;exitY=0.5;exitDx=0;exitDy=0;entryX=0;entryY=0.5;entryDx=0;entryDy=0;endArrow=none;endFill=0;" edge="1" parent="1" source="qe55BHSGIHkiEadWLdB0-15" target="qe55BHSGIHkiEadWLdB0-25">
          <mxGeometry relative="1" as="geometry" />
        </mxCell>
        <mxCell id="qe55BHSGIHkiEadWLdB0-15" value="" style="ellipse;whiteSpace=wrap;html=1;aspect=fixed;fillColor=#f5f5f5;fontColor=#333333;strokeColor=#666666;" vertex="1" parent="1">
          <mxGeometry x="400" y="160" width="20" height="20" as="geometry" />
        </mxCell>
        <mxCell id="qe55BHSGIHkiEadWLdB0-85" style="rounded=0;orthogonalLoop=1;jettySize=auto;html=1;exitX=1;exitY=0.5;exitDx=0;exitDy=0;entryX=0;entryY=0.5;entryDx=0;entryDy=0;endArrow=none;endFill=0;" edge="1" parent="1" source="qe55BHSGIHkiEadWLdB0-16" target="qe55BHSGIHkiEadWLdB0-24">
          <mxGeometry relative="1" as="geometry" />
        </mxCell>
        <mxCell id="qe55BHSGIHkiEadWLdB0-86" style="rounded=0;orthogonalLoop=1;jettySize=auto;html=1;exitX=1;exitY=0.5;exitDx=0;exitDy=0;entryX=0;entryY=0.5;entryDx=0;entryDy=0;endArrow=none;endFill=0;" edge="1" parent="1" source="qe55BHSGIHkiEadWLdB0-16" target="qe55BHSGIHkiEadWLdB0-23">
          <mxGeometry relative="1" as="geometry" />
        </mxCell>
        <mxCell id="qe55BHSGIHkiEadWLdB0-87" style="rounded=0;orthogonalLoop=1;jettySize=auto;html=1;exitX=1;exitY=0.5;exitDx=0;exitDy=0;entryX=0;entryY=0.5;entryDx=0;entryDy=0;endArrow=none;endFill=0;" edge="1" parent="1" source="qe55BHSGIHkiEadWLdB0-16" target="qe55BHSGIHkiEadWLdB0-25">
          <mxGeometry relative="1" as="geometry" />
        </mxCell>
        <mxCell id="qe55BHSGIHkiEadWLdB0-16" value="" style="ellipse;whiteSpace=wrap;html=1;aspect=fixed;fillColor=#f5f5f5;fontColor=#333333;strokeColor=#666666;" vertex="1" parent="1">
          <mxGeometry x="400" y="200" width="20" height="20" as="geometry" />
        </mxCell>
        <mxCell id="qe55BHSGIHkiEadWLdB0-88" style="rounded=0;orthogonalLoop=1;jettySize=auto;html=1;exitX=1;exitY=0.5;exitDx=0;exitDy=0;entryX=0;entryY=0.5;entryDx=0;entryDy=0;endArrow=none;endFill=0;" edge="1" parent="1" source="qe55BHSGIHkiEadWLdB0-17" target="qe55BHSGIHkiEadWLdB0-24">
          <mxGeometry relative="1" as="geometry" />
        </mxCell>
        <mxCell id="qe55BHSGIHkiEadWLdB0-89" style="rounded=0;orthogonalLoop=1;jettySize=auto;html=1;exitX=1;exitY=0.5;exitDx=0;exitDy=0;entryX=0;entryY=0.5;entryDx=0;entryDy=0;endArrow=none;endFill=0;" edge="1" parent="1" source="qe55BHSGIHkiEadWLdB0-17" target="qe55BHSGIHkiEadWLdB0-23">
          <mxGeometry relative="1" as="geometry" />
        </mxCell>
        <mxCell id="qe55BHSGIHkiEadWLdB0-90" style="rounded=0;orthogonalLoop=1;jettySize=auto;html=1;exitX=1;exitY=0.5;exitDx=0;exitDy=0;entryX=0;entryY=0.5;entryDx=0;entryDy=0;endArrow=none;endFill=0;" edge="1" parent="1" source="qe55BHSGIHkiEadWLdB0-17" target="qe55BHSGIHkiEadWLdB0-25">
          <mxGeometry relative="1" as="geometry" />
        </mxCell>
        <mxCell id="qe55BHSGIHkiEadWLdB0-17" value="" style="ellipse;whiteSpace=wrap;html=1;aspect=fixed;fillColor=#f5f5f5;fontColor=#333333;strokeColor=#666666;" vertex="1" parent="1">
          <mxGeometry x="400" y="240" width="20" height="20" as="geometry" />
        </mxCell>
        <mxCell id="qe55BHSGIHkiEadWLdB0-91" style="rounded=0;orthogonalLoop=1;jettySize=auto;html=1;exitX=1;exitY=0.5;exitDx=0;exitDy=0;entryX=0;entryY=0.5;entryDx=0;entryDy=0;endArrow=none;endFill=0;" edge="1" parent="1" source="qe55BHSGIHkiEadWLdB0-18" target="qe55BHSGIHkiEadWLdB0-24">
          <mxGeometry relative="1" as="geometry" />
        </mxCell>
        <mxCell id="qe55BHSGIHkiEadWLdB0-92" style="rounded=0;orthogonalLoop=1;jettySize=auto;html=1;exitX=1;exitY=0.5;exitDx=0;exitDy=0;entryX=0;entryY=0.5;entryDx=0;entryDy=0;endArrow=none;endFill=0;" edge="1" parent="1" source="qe55BHSGIHkiEadWLdB0-18" target="qe55BHSGIHkiEadWLdB0-23">
          <mxGeometry relative="1" as="geometry" />
        </mxCell>
        <mxCell id="qe55BHSGIHkiEadWLdB0-93" style="rounded=0;orthogonalLoop=1;jettySize=auto;html=1;exitX=1;exitY=0.5;exitDx=0;exitDy=0;entryX=0;entryY=0.5;entryDx=0;entryDy=0;endArrow=none;endFill=0;" edge="1" parent="1" source="qe55BHSGIHkiEadWLdB0-18" target="qe55BHSGIHkiEadWLdB0-25">
          <mxGeometry relative="1" as="geometry" />
        </mxCell>
        <mxCell id="qe55BHSGIHkiEadWLdB0-18" value="" style="ellipse;whiteSpace=wrap;html=1;aspect=fixed;fillColor=#f5f5f5;fontColor=#333333;strokeColor=#666666;" vertex="1" parent="1">
          <mxGeometry x="400" y="280" width="20" height="20" as="geometry" />
        </mxCell>
        <mxCell id="qe55BHSGIHkiEadWLdB0-94" style="rounded=0;orthogonalLoop=1;jettySize=auto;html=1;exitX=1;exitY=0.5;exitDx=0;exitDy=0;entryX=0;entryY=0.5;entryDx=0;entryDy=0;endArrow=none;endFill=0;" edge="1" parent="1" source="qe55BHSGIHkiEadWLdB0-19" target="qe55BHSGIHkiEadWLdB0-24">
          <mxGeometry relative="1" as="geometry" />
        </mxCell>
        <mxCell id="qe55BHSGIHkiEadWLdB0-95" style="rounded=0;orthogonalLoop=1;jettySize=auto;html=1;exitX=1;exitY=0.5;exitDx=0;exitDy=0;entryX=0;entryY=0.5;entryDx=0;entryDy=0;endArrow=none;endFill=0;" edge="1" parent="1" source="qe55BHSGIHkiEadWLdB0-19" target="qe55BHSGIHkiEadWLdB0-23">
          <mxGeometry relative="1" as="geometry" />
        </mxCell>
        <mxCell id="qe55BHSGIHkiEadWLdB0-96" style="rounded=0;orthogonalLoop=1;jettySize=auto;html=1;exitX=1;exitY=0.5;exitDx=0;exitDy=0;entryX=0;entryY=0.5;entryDx=0;entryDy=0;endArrow=none;endFill=0;" edge="1" parent="1" source="qe55BHSGIHkiEadWLdB0-19" target="qe55BHSGIHkiEadWLdB0-25">
          <mxGeometry relative="1" as="geometry" />
        </mxCell>
        <mxCell id="qe55BHSGIHkiEadWLdB0-19" value="" style="ellipse;whiteSpace=wrap;html=1;aspect=fixed;fillColor=#f5f5f5;fontColor=#333333;strokeColor=#666666;" vertex="1" parent="1">
          <mxGeometry x="400" y="320" width="20" height="20" as="geometry" />
        </mxCell>
        <mxCell id="qe55BHSGIHkiEadWLdB0-23" value="" style="ellipse;whiteSpace=wrap;html=1;aspect=fixed;fillColor=#f8cecc;strokeColor=#b85450;" vertex="1" parent="1">
          <mxGeometry x="480" y="240" width="20" height="20" as="geometry" />
        </mxCell>
        <mxCell id="qe55BHSGIHkiEadWLdB0-24" value="" style="ellipse;whiteSpace=wrap;html=1;aspect=fixed;fillColor=#f8cecc;strokeColor=#b85450;" vertex="1" parent="1">
          <mxGeometry x="480" y="200" width="20" height="20" as="geometry" />
        </mxCell>
        <mxCell id="qe55BHSGIHkiEadWLdB0-25" value="" style="ellipse;whiteSpace=wrap;html=1;aspect=fixed;fillColor=#f8cecc;strokeColor=#b85450;" vertex="1" parent="1">
          <mxGeometry x="480" y="280" width="20" height="20" as="geometry" />
        </mxCell>
        <mxCell id="qe55BHSGIHkiEadWLdB0-97" value="\(Q(s_t,a_1)=20\)" style="text;html=1;strokeColor=none;fillColor=none;align=left;verticalAlign=middle;whiteSpace=wrap;rounded=0;" vertex="1" parent="1">
          <mxGeometry x="505" y="195" width="90" height="30" as="geometry" />
        </mxCell>
        <mxCell id="qe55BHSGIHkiEadWLdB0-100" value="\(Q(s_t,a_2)=100\)" style="text;html=1;strokeColor=none;fillColor=none;align=left;verticalAlign=middle;whiteSpace=wrap;rounded=0;" vertex="1" parent="1">
          <mxGeometry x="505" y="235" width="100" height="30" as="geometry" />
        </mxCell>
        <mxCell id="qe55BHSGIHkiEadWLdB0-101" value="\(Q(s_t,a_3)=-50\)" style="text;html=1;strokeColor=none;fillColor=none;align=left;verticalAlign=middle;whiteSpace=wrap;rounded=0;" vertex="1" parent="1">
          <mxGeometry x="505" y="275" width="110" height="30" as="geometry" />
        </mxCell>
        <mxCell id="qe55BHSGIHkiEadWLdB0-102" value="" style="shape=flexArrow;endArrow=classic;html=1;rounded=0;fillColor=#d5e8d4;strokeColor=#82b366;" edge="1" parent="1">
          <mxGeometry width="50" height="50" relative="1" as="geometry">
            <mxPoint x="180" y="249.82999999999998" as="sourcePoint" />
            <mxPoint x="240" y="249.82999999999998" as="targetPoint" />
          </mxGeometry>
        </mxCell>
        <mxCell id="qe55BHSGIHkiEadWLdB0-104" value="\(s_t\)" style="text;html=1;align=center;verticalAlign=middle;whiteSpace=wrap;rounded=0;fontColor=#009900;" vertex="1" parent="1">
          <mxGeometry x="160" y="237.5" width="20" height="25" as="geometry" />
        </mxCell>
      </root>
    </mxGraphModel>
  </diagram>
</mxfile>
